<svg xmlns="http://www.w3.org/2000/svg" width="200" height="200" fill="none" viewBox="0 0 200 200">
  <path fill="url(#a)" d="M0 0h200v200H0z"/>
  <g filter="url(#b)">
    <circle cx="100" cy="100" r="25" fill="#D9D9D9"/>
  </g>
  <path fill="#D9D9D9" d="M0 0h200v10H0zm0 190h200v10H0z"/>
  <path fill="#D9D9D9" d="M0 0h200v10H0z"/>
  <path fill="#D9D9D9" d="M0 200V0h10v200zm190 0V0h10v200z"/>
  <path fill="#848484" d="M0 0h200v2H0zm0 198h200v2H0z"/>
  <path fill="#848484" d="M0 200V0h2v200zm198 0V0h2v200z"/>
  <defs>
    <radialGradient id="a" cx="0" cy="0" r="1" gradientTransform="rotate(90 0 100) scale(100)" gradientUnits="userSpaceOnUse">
      <stop offset=".313" stop-color="#7059FF"/>
      <stop offset="1" stop-color="#2400FF"/>
    </radialGradient>
    <filter id="b" width="100" height="100" x="50" y="50" color-interpolation-filters="sRGB" filterUnits="userSpaceOnUse">
      <feFlood flood-opacity="0" result="BackgroundImageFix"/>
      <feColorMatrix in="SourceAlpha" result="hardAlpha" values="0 0 0 0 0 0 0 0 0 0 0 0 0 0 0 0 0 0 127 0"/>
      <feOffset/>
      <feGaussianBlur stdDeviation="12.5"/>
      <feComposite in2="hardAlpha" operator="out"/>
      <feColorMatrix values="0 0 0 0 0 0 0 0 0 0 0 0 0 0 0 0 0 0 0.25 0"/>
      <feBlend in2="BackgroundImageFix" result="effect1_dropShadow_1_25"/>
      <feBlend in="SourceGraphic" in2="effect1_dropShadow_1_25" result="shape"/>
      <feColorMatrix in="SourceAlpha" result="hardAlpha" values="0 0 0 0 0 0 0 0 0 0 0 0 0 0 0 0 0 0 127 0"/>
      <feOffset dx="4" dy="4"/>
      <feGaussianBlur stdDeviation="2"/>
      <feComposite in2="hardAlpha" k2="-1" k3="1" operator="arithmetic"/>
      <feColorMatrix values="0 0 0 0 1 0 0 0 0 1 0 0 0 0 1 0 0 0 0.25 0"/>
      <feBlend in2="shape" result="effect2_innerShadow_1_25"/>
      <feColorMatrix in="SourceAlpha" result="hardAlpha" values="0 0 0 0 0 0 0 0 0 0 0 0 0 0 0 0 0 0 127 0"/>
      <feOffset dx="-4" dy="-4"/>
      <feGaussianBlur stdDeviation="2"/>
      <feComposite in2="hardAlpha" k2="-1" k3="1" operator="arithmetic"/>
      <feColorMatrix values="0 0 0 0 0 0 0 0 0 0 0 0 0 0 0 0 0 0 0.25 0"/>
      <feBlend in2="effect2_innerShadow_1_25" result="effect3_innerShadow_1_25"/>
    </filter>
  </defs>
</svg>
