<svg xmlns="http://www.w3.org/2000/svg" width="40" height="40" fill="none" viewBox="0 0 40 40">
  <path fill="#6D7587" fill-rule="evenodd" d="M6 26.79c-.005-.461.18-.723.592-.752h3.323c1.412 0 2.098.038 3.3-.925.255-.203.495-.44.722-.71 1.074-1.278 1.456-2.828 1.857-4.469.777-3.183 2.013-6.546 5.305-7.878 1.874-.756 4.442-.612 6.47-.612h1.243l.002-2.377c0-1.185.279-1.39 1.13-.58l4.615 4.395c.557.53.479.875-.052 1.386l-4.555 4.375c-.795.806-1.154.58-1.138-.535v-2.79c-8.024-.123-7.686.395-9.923 8.062-.826 2.374-2.08 4.04-3.68 5.13-1.673 1.14-3.228 1.51-5.197 1.51H7.57c-1.402 0-1.57-.066-1.57-1.503V26.79Zm.054-12.58c-.004.462.18.725.593.753h3.469c1.411 0 2.098-.038 3.3.925.254.203.495.44.721.71.274.326.503.67.699 1.028.354-1.11.793-2.197 1.374-3.193a12.5 12.5 0 0 1 .526-.823 8.426 8.426 0 0 0-1.324-1.118c-1.673-1.14-3.229-1.512-5.197-1.512H7.624c-1.402 0-1.57.067-1.57 1.505v1.726Zm12.589 12.817a6.867 6.867 0 0 0 2.66 1.918c1.873.756 4.297.612 6.324.612h1.244l.003 2.377c0 1.185.278 1.39 1.13.58l4.614-4.395c.557-.53.479-.875-.052-1.386l-4.555-4.375c-.795-.806-1.154-.58-1.137.535v2.79c-5.849.09-7.18-.163-8.336-3.273-.064.223-.151.528-.456 1.573a14.382 14.382 0 0 1-1.44 3.044Z" clip-rule="evenodd"/>
</svg>
